<svg width="135" height="30" viewBox="0 0 135 30" fill="none" xmlns="http://www.w3.org/2000/svg">
<path d="M23.0173 15.469H18.6997C18.6997 16.084 18.6699 17.1297 18.6103 17.6832C18.2828 20.0205 17.3895 20.9738 15.3051 21.4351C14.7096 21.5582 13.8461 21.6504 13.0123 21.6812C12.387 21.7119 11.8511 21.7119 11.3151 21.7119C10.4813 21.7119 9.70715 21.6812 8.87341 21.5889C6.13397 21.3121 4.97268 20.5433 4.55581 17.4372C4.40693 16.2686 4.3176 14.6079 4.3176 13.0395C4.3176 11.5325 4.37715 9.99487 4.46648 8.85699C4.73447 5.4126 6.07441 4.27473 8.84363 4.0287C9.58804 3.96719 10.3622 3.90569 11.2853 3.90569C11.4937 3.90569 11.7022 3.90569 11.9106 3.90569C12.9528 3.90569 13.7865 3.96719 14.5905 4.05945C16.8833 4.30548 18.253 5.3511 18.4614 7.78062C18.4912 8.21117 18.521 8.82624 18.521 9.28754H22.9279C22.9279 8.61096 22.9279 7.65761 22.8684 7.10404C22.2728 1.96822 20.0098 0.492056 15.1563 0.092261C14.2332 0.030753 13.191 0 11.9404 0C10.4813 0 9.17117 0.030753 8.09922 0.092261C2.88832 0.430548 0.714637 2.39877 0.208436 7.96514C0.0893297 9.3798 0 11.2558 0 13.0395C0.0297766 14.9154 0.119106 16.8529 0.297765 18.2983C0.923073 23.5879 3.21587 25.1563 7.77167 25.4946C8.72452 25.5869 9.91558 25.6484 11.2258 25.6484C11.4342 25.6484 11.6426 25.6484 11.8511 25.6484C13.3697 25.6484 14.6501 25.5561 15.6922 25.4331C20.3969 24.8795 22.3026 23.2804 22.8982 18.1445C22.9875 17.468 23.0173 16.2071 23.0173 15.469Z" fill="white"/>
<path d="M43.5707 6.33521H39.0745L34.3996 18.8211L29.278 6.33521H24.752L32.4939 23.1266L31.8983 24.5105C31.3028 25.8636 30.1713 26.2942 28.7718 26.2942C28.5931 26.2942 27.2532 26.2634 25.8239 26.0789V29.7078C26.9554 29.8308 27.7892 29.8923 28.8016 29.8923C31.7495 29.8923 33.5063 29.1235 34.6676 27.1553C34.9653 26.6632 35.3822 25.9251 35.6502 25.2486L43.5707 6.33521Z" fill="white"/>
<path d="M63.3761 17.3449H59.386C59.386 18.1753 59.3563 18.8826 59.2967 19.2824C59.0585 21.0354 58.2843 21.6504 56.5275 21.8657C55.9022 21.958 55.1875 21.9887 54.4729 21.9887C53.7285 21.9887 53.0139 21.958 52.3588 21.8964C50.3935 21.6812 49.6789 21.1584 49.3811 19.0979C49.262 18.2368 49.2025 17.0682 49.2025 15.8995C49.2025 14.8232 49.262 13.6853 49.3216 12.8549C49.53 10.6714 50.334 9.93336 52.1503 9.62583C52.7756 9.53357 53.4307 9.50281 54.0858 9.50281C54.2942 9.50281 54.4729 9.50281 54.6813 9.50281C55.4258 9.50281 56.1999 9.56432 56.9444 9.68733C57.9568 9.87185 59.0883 10.1794 59.3265 12.3629C59.3563 12.6704 59.3563 13.101 59.386 13.47H63.2868C63.257 12.9164 63.257 12.1169 63.2272 11.6248C62.8997 8.02665 61.5002 6.30446 57.0635 5.96617C56.3786 5.90466 55.5746 5.87391 54.592 5.87391C53.5201 5.87391 52.597 5.90466 51.7335 5.96617C48.1305 6.15069 45.8377 7.25781 45.3911 12.1169C45.3017 13.1932 45.2422 14.5771 45.2422 15.9303C45.2422 17.3449 45.3315 18.7288 45.4506 19.836C45.9568 23.9569 47.8923 25.2178 51.4357 25.4946C52.2992 25.5561 53.3414 25.5869 54.5622 25.5869C55.6937 25.5869 56.6764 25.5254 57.4803 25.4331C61.1726 25.0333 62.7806 23.7109 63.257 19.713C63.3165 19.1901 63.3463 18.2983 63.3761 17.3449Z" fill="white"/>
<path d="M70.9798 25.1256V0.461301H66.9004V25.0948L70.9798 25.1256Z" fill="white"/>
<path d="M92.8993 15.6535C92.8695 13.9006 92.6908 11.8708 92.3633 10.2409C91.6784 6.98103 89.7727 6.11993 86.5271 5.87391C85.8125 5.8124 84.9192 5.8124 83.9365 5.8124C82.8348 5.8124 81.7926 5.8124 80.8993 5.87391C77.2964 6.05843 75.0036 7.22706 74.5569 12.0861C74.4676 13.1932 74.4081 14.5464 74.4081 15.9303C74.4378 17.3449 74.4974 18.7596 74.6463 19.8975C75.1525 24.0492 77.0582 25.3101 80.6313 25.5869C81.4949 25.6484 82.6562 25.6791 83.877 25.6791C85.0383 25.6791 86.14 25.6484 86.944 25.5561C90.666 25.1256 92.2144 23.8032 92.7206 19.7745C92.8695 18.5751 92.8993 17.0989 92.8993 15.6535ZM84.3534 22.1732C83.9961 22.1732 83.6388 22.204 83.3112 22.204C82.6859 22.204 82.1202 22.1732 81.5544 22.1117C79.5296 21.8964 78.7554 21.3736 78.4577 19.1901C78.3386 18.2983 78.279 17.0989 78.279 15.8995C78.279 14.7924 78.3088 13.6853 78.3683 12.8242C78.547 10.7022 79.2319 9.74884 80.9887 9.47206C81.7033 9.3798 82.4179 9.3798 83.1624 9.34904C83.5197 9.34904 83.877 9.31829 84.2343 9.31829C84.8596 9.31829 85.4551 9.34905 86.0507 9.41055C87.8968 9.59507 88.6115 10.2409 88.8794 12.4244C88.9986 13.347 89.0581 14.5464 89.0581 15.7765C89.0581 17.0989 89.0283 18.3906 88.8794 19.3747C88.671 21.0046 88.0457 21.7119 86.5569 22.0195C85.872 22.1732 85.0978 22.1732 84.3534 22.1732Z" fill="white"/>
<path d="M114.337 19.2517C114.456 18.2983 114.486 17.0989 114.486 15.8995C114.486 14.4541 114.427 12.978 114.278 11.8401C113.891 8.58021 112.193 6.24295 108.829 5.96617C108.173 5.93541 107.161 5.87391 106.149 5.87391C105.017 5.87391 103.886 5.93541 103.171 6.05843C101.325 6.36596 100.729 7.25781 100.193 8.08815V6.33521H96.2629V29.9538H100.223V23.2496C100.878 24.2337 101.682 24.695 103.052 24.9718C103.767 25.1256 104.898 25.1871 106.059 25.1871C107.191 25.1871 108.322 25.1256 109.037 25.0025C112.64 24.5105 113.98 22.6345 114.337 19.2517ZM110.466 18.329C110.288 19.7437 109.871 20.7586 108.59 21.1891C108.084 21.3736 107.042 21.5274 106.119 21.5582C105.91 21.5582 105.702 21.5889 105.464 21.5889C104.481 21.5889 103.32 21.4659 102.486 21.1891C101.533 20.8816 101.027 20.328 100.729 19.4977C100.402 18.5751 100.312 17.2834 100.253 16.2378C100.253 15.9918 100.253 15.715 100.253 15.4382C100.253 14.5156 100.283 13.47 100.372 12.6704C100.551 10.979 101.027 10.0256 102.724 9.68733C103.499 9.53357 104.571 9.47206 105.434 9.47206C105.613 9.47206 105.762 9.47206 105.91 9.47206C106.804 9.47206 107.876 9.59507 108.382 9.74884C109.603 10.1179 110.198 11.1327 110.407 12.4551C110.526 13.1932 110.585 14.4234 110.585 15.6227C110.585 16.6684 110.556 17.6832 110.466 18.329Z" fill="white"/>
<path d="M134.276 19.8667C134.276 19.1286 134.216 18.4213 134.097 17.837C133.591 15.1614 131.775 14.3926 129.393 14.0851C127.487 13.839 124.39 13.6545 122.752 13.4393C121.77 13.3162 121.204 12.9472 121.055 12.2706C120.996 12.0553 120.966 11.7786 120.966 11.5325C120.966 11.225 120.996 10.9175 121.085 10.6407C121.323 9.81035 122.008 9.47206 123.229 9.31829C123.824 9.25679 124.539 9.22603 125.402 9.22603C126.355 9.22603 127.129 9.28754 127.755 9.3798C129.244 9.59507 129.69 10.2101 129.78 11.6556C129.78 11.7171 129.78 11.7786 129.78 11.8708H133.651C133.591 9.99487 133.531 9.13377 133.055 8.27268C132.4 7.07329 131.179 6.2737 128.618 5.96617C127.636 5.84315 126.594 5.78165 125.551 5.78165C124.569 5.78165 123.586 5.8124 122.633 5.90466C120.221 6.15069 117.988 7.07329 117.422 9.44131C117.273 9.99487 117.214 10.6407 117.184 11.2865C117.184 11.4403 117.184 11.594 117.184 11.7786C117.184 12.3014 117.214 12.7934 117.303 13.2547C117.661 15.1614 118.911 16.3301 121.412 16.7606C123.169 17.0374 126.474 17.2527 128.41 17.4987C129.69 17.6832 130.226 18.1753 130.375 19.0056C130.405 19.1901 130.435 19.4977 130.435 19.8052C130.435 20.1435 130.405 20.5125 130.345 20.6971C130.077 21.4044 129.66 21.8349 128.35 22.0502C127.904 22.1117 126.534 22.2347 125.849 22.2347C125.254 22.2347 124.182 22.2347 123.169 22.1117C121.085 21.8349 120.817 20.7586 120.817 19.0979H116.886C116.916 23.3419 118.048 25.0948 122.514 25.5254C123.437 25.6176 124.569 25.6176 125.73 25.6176C127.129 25.6176 128.44 25.5561 129.541 25.3716C132.043 25.0025 133.472 24.0799 134.038 22.0195C134.216 21.4044 134.276 20.6356 134.276 19.8667Z" fill="white"/>
<circle cx="11.5092" cy="12.7882" r="3.83645" fill="white"/>
</svg>
